# xmcd
#
# Track frame offsets:
#	150
#	11633
#	26213
#	39175
#	55843
#	71244
#	86429
#	99362
#	115103
#	125843
#
# Disc length: 1867 seconds
#
# Revision: 0
# Processed by: cddbd v1.5.2PL0 Copyright (c) Steve Scherf et al.
# Submitted via: audiograbber 1.83.01
#
DISCID=8007490a
DTITLE=Brazilian Voices - Holiday Celebration
DYEAR=1900
DGENRE=Pop
TTITLE0=Ave Maria
TTITLE1=La nanita Nana
TTITLE2=The little drummer boy
TTITLE3=I have a dream
TTITLE4=Novo tempo
TTITLE5=Feliz Navidad Medley
TTITLE6=Jingle Bell Rock
TTITLE7=Happy Xmas
TTITLE8=White Christmas
TTITLE9=What a wonderful world
EXTD=
EXTT0=
EXTT1=
EXTT2=
EXTT3=
EXTT4=
EXTT5=
EXTT6=
EXTT7=
EXTT8=
EXTT9=
PLAYORDER=
